<svg width="29" height="28" fill="none" xmlns="http://www.w3.org/2000/svg"><g clip-path="url(#a)"><path fill-rule="evenodd" clip-rule="evenodd" d="M28.795 26.37c0 .845-.682 1.538-1.537 1.538h-7.113V17.1h3.626l.542-4.213h-4.168v-2.685c0-1.224.335-2.047 2.09-2.047h2.23v-3.78c-.39-.054-1.711-.162-3.248-.162-3.216 0-5.413 1.96-5.413 5.566v3.108h-3.638V17.1h3.638v10.808H2.434A1.536 1.536 0 0 1 .898 26.37V1.538A1.542 1.542 0 0 1 2.435 0h24.823c.844 0 1.537.682 1.537 1.538V26.37Zm-12.991 1.538h4.34-4.34Z" fill="#fff"/></g><defs><clipPath id="a"><path fill="#fff" transform="translate(.897)" d="M0 0h27.897v27.897H0z"/></clipPath></defs></svg>