<svg width="42" height="50" fill="none" xmlns="http://www.w3.org/2000/svg"><path d="M39.846 32.484c.183.076.365.114.547.114.291 0 .546-.076.728-.267a1.63 1.63 0 0 0 .401-.8c.073-.343.146-.763.146-1.22V15.136c0-.457-.037-.915-.146-1.372a5.33 5.33 0 0 0-.4-1.297 4.643 4.643 0 0 0-.73-1.143 5.063 5.063 0 0 0-1.055-.915l-1.13-.687c-.4-.267-.764-.38-1.056-.38-.291 0-.546.075-.728.266-.182.19-.328.457-.4.8a5.854 5.854 0 0 0-.147 1.22v15.213c0 .458.037.915.146 1.373.073.457.219.877.4 1.296.183.42.438.8.73 1.144.254.305.546.572.873.8l-1.82-1.067L10.09 42.549l2.258 1.335 5.135-2.364 5.464 3.24-4.007 3.05 2.331 1.373 20.397-15.632-1.822-1.067ZM24.55 43.426l-4.99-2.974 16.5-7.701 1.82 1.067-13.33 9.608Zm14.788-13.573-1.13-.686a1.173 1.173 0 0 1-.51-.61 1.72 1.72 0 0 1-.145-.724V12.582c0-.229.036-.42.146-.572.109-.114.255-.114.51.038l1.129.686c.218.153.4.344.51.572.109.267.145.496.145.725v15.212c0 .229-.036.42-.145.572-.146.19-.292.153-.51.038Z" fill="#76FF6A"/><path d="M33.399 28.404c.328 0 .546-.076.765-.267.182-.19.328-.457.437-.8.11-.343.145-.763.145-1.22V10.752c0-.458-.036-.915-.145-1.373-.11-.457-.219-.877-.437-1.296-.182-.42-.437-.8-.765-1.144-.328-.343-.692-.686-1.13-.915l-1.201-.686a2.932 2.932 0 0 0-1.13-.42c-.327 0-.582.077-.764.267-.182.19-.328.458-.437.8-.11.344-.146.763-.146 1.22v15.328c0 .457.037.915.146 1.372.11.458.218.915.437 1.297.182.42.437.8.765 1.182.218.228.473.457.728.648l-.4-.229-8.341 4.957-.073-5.529 3.715-2.211 2.404-17.996V3.546L22.217 0v2.478l3.934 2.402-2.84 17.767-6.193 3.66.037-.038 1.202-.8c.437-.305.837-.649 1.129-1.068a5.28 5.28 0 0 0 .765-1.296c.182-.458.327-.953.437-1.487.109-.534.145-1.03.145-1.563V2.82c0-.495-.036-.953-.145-1.372-.11-.381-.219-.686-.437-.915-.183-.229-.438-.305-.765-.305-.328 0-.692.152-1.13.457l-1.201.8c-.437.306-.838.65-1.13 1.068a5.28 5.28 0 0 0-.764 1.297 8.767 8.767 0 0 0-.437 1.487 7.57 7.57 0 0 0-.146 1.563v17.271c0 .534.036.953.146 1.373.109.381.218.686.437.915.182.229.437.305.765.305.218 0 .51-.076.8-.267L9.87 30.654l1.166-.8a5.117 5.117 0 0 0 1.129-1.068c.328-.42.546-.84.765-1.297.182-.457.328-.953.437-1.487.073-.533.145-1.029.145-1.563V7.244c0-.496-.036-.953-.145-1.372-.073-.382-.219-.687-.437-.916-.182-.228-.437-.305-.765-.305-.291 0-.692.153-1.13.458l-1.165.8a5.118 5.118 0 0 0-1.129 1.068c-.327.42-.546.839-.765 1.296a6.327 6.327 0 0 0-.4 1.487c-.073.534-.146 1.03-.146 1.564v17.233c0 .534.037.953.146 1.373.073.38.218.686.4.915.183.228.438.305.765.305.219 0 .437-.077.729-.23l-7.212 4.233c.037-.038.11-.076.146-.115l1.093-.762a5.115 5.115 0 0 0 1.129-1.068 7.77 7.77 0 0 0 .764-1.334c.183-.458.328-.991.438-1.487.072-.534.145-1.068.145-1.563v-9.265c0-.534-.036-.991-.145-1.373-.11-.419-.219-.724-.438-.915-.182-.228-.437-.305-.764-.305-.292 0-.692.153-1.13.458l-1.784 1.22v-5.185l3.97-2.707V8.007L0 11.896v10.637l3.533-2.402c.255-.19.437-.19.546-.076.11.152.146.343.146.686v9.265c0 .305-.036.572-.146.838a1.618 1.618 0 0 1-.546.687l-1.093.762c-.255.19-.437.19-.546.038-.11-.152-.146-.38-.146-.648V24.86L0 26.04v6.825c0 .534.036.991.146 1.373.073.42.218.724.4.915.182.229.437.305.765.305.219 0 .51-.076.801-.267L0 36.487l2.295 1.335 16.499-9.799.218 5.414-12.019 7.13L9.288 41.9l23.273-13.84c.292.267.583.343.838.343Zm-24.075-.419c-.11-.152-.146-.343-.146-.648V10.104c0-.267.037-.572.146-.84a1.62 1.62 0 0 1 .546-.685l1.166-.801c.255-.153.4-.19.51-.038.109.152.145.343.145.648V25.62c0 .267-.036.572-.145.839-.11.267-.292.496-.51.648l-1.166.8c-.255.191-.437.23-.546.077Zm7.284-4.346c-.109-.153-.145-.344-.145-.649V5.72c0-.267.036-.572.145-.839.11-.267.292-.495.547-.686l1.202-.8c.255-.153.437-.191.546-.039.11.153.146.343.146.648v17.272c0 .267-.037.572-.146.838-.11.267-.291.496-.546.649l-1.202.8c-.255.19-.437.23-.547.077Zm14.46 1.258a1.244 1.244 0 0 1-.546-.61 1.718 1.718 0 0 1-.146-.725V8.235c0-.267.036-.457.146-.572.109-.114.291-.114.546.039l1.202.686c.255.152.4.343.51.61.109.267.145.496.145.762v15.327c0 .267-.036.42-.145.572-.11.115-.292.115-.51-.038l-1.202-.724Z" fill="#76FF6A"/></svg>