<svg width="29" height="28" fill="none" xmlns="http://www.w3.org/2000/svg"><g clip-path="url(#a)"><path d="M25.22 0H4.152A3.366 3.366 0 0 0 .795 3.37v21.273c0 1.743 1.505 3.254 3.357 3.254h21.183a3.366 3.366 0 0 0 3.357-3.37V3.37C28.577 1.51 27.072 0 25.22 0Zm-2.547 12.205h-.463c-1.62 0-3.241-.813-4.167-2.208v7.671c0 3.139-2.547 5.696-5.672 5.696-3.126 0-5.672-2.557-5.672-5.696 0-3.138 2.546-5.695 5.672-5.695h.347v2.79h-.347c-1.621 0-2.894 1.278-2.894 2.905 0 1.628 1.273 2.906 2.894 2.906 1.62 0 3.01-1.278 3.01-2.906V4.65h2.662c.231 2.44 2.2 4.3 4.514 4.417l.116 3.138Z" fill="#fff"/></g><defs><clipPath id="a"><path fill="#fff" transform="translate(.795)" d="M0 0h27.897v27.897H0z"/></clipPath></defs></svg>