<svg width="28" height="28" fill="none" xmlns="http://www.w3.org/2000/svg"><g clip-path="url(#a)"><path fill-rule="evenodd" clip-rule="evenodd" d="M9.671 0h8.555c7.812 0 9.671 1.86 9.671 9.671v8.555c0 7.812-1.86 9.671-9.67 9.671H9.67c-7.81 0-9.67-1.86-9.67-9.67V9.67C0 1.86 1.86 0 9.671 0Zm13.173 9.611c.13-.431 0-.748-.615-.748h-2.034c-.517 0-.756.274-.885.576 0 0-1.035 2.521-2.5 4.159-.474.474-.69.625-.948.625-.13 0-.317-.151-.317-.582V9.61c0-.517-.15-.748-.581-.748h-3.197c-.323 0-.517.24-.517.468 0 .49.732.603.808 1.982v2.996c0 .657-.119.776-.377.776-.69 0-2.367-2.533-3.362-5.43-.195-.564-.39-.792-.91-.792H5.373c-.58 0-.697.274-.697.576 0 .538.69 3.21 3.21 6.745 1.682 2.414 4.05 3.722 6.205 3.722 1.293 0 1.453-.29 1.453-.791V17.29c0-.582.123-.698.532-.698.302 0 .82.151 2.026 1.315 1.38 1.38 1.606 1.998 2.382 1.998h2.035c.58 0 .871-.29.704-.864-.184-.572-.842-1.4-1.716-2.384-.474-.56-1.185-1.164-1.4-1.465-.303-.388-.216-.56 0-.906 0 0 2.477-3.49 2.736-4.676Z" fill="#fff"/></g><defs><clipPath id="a"><path fill="#fff" d="M0 0h27.897v27.897H0z"/></clipPath></defs></svg>