<svg width="29" height="25" fill="none" xmlns="http://www.w3.org/2000/svg"><path fill-rule="evenodd" clip-rule="evenodd" d="M22.583 4.473a3.039 3.039 0 0 1 2.115 2.16c.514 1.917.494 5.913.494 5.913s0 3.976-.494 5.893a3.04 3.04 0 0 1-2.115 2.16c-1.878.504-9.39.504-9.39.504s-7.493 0-9.391-.525a3.039 3.039 0 0 1-2.115-2.16c-.495-1.896-.495-5.892-.495-5.892s0-3.976.495-5.893c.276-1.05 1.107-1.897 2.115-2.18 1.878-.504 9.39-.504 9.39-.504s7.513 0 9.39.524ZM10.8 8.853l6.247 3.673-6.247 3.673V8.853Z" fill="#fff"/></svg>